<svg width="108" height="23" viewBox="0 0 108 23" fill="none" xmlns="http://www.w3.org/2000/svg">
<path d="M9.55778 0.838171C9.74538 0.482597 10.2546 0.482596 10.4422 0.838169L12.9418 5.57567C13.0141 5.71279 13.146 5.8086 13.2987 5.83503L18.5768 6.74826C18.9729 6.8168 19.1303 7.30112 18.8501 7.58942L15.1168 11.4306C15.0088 11.5418 14.9584 11.6968 14.9805 11.8502L15.743 17.1521C15.8002 17.5501 15.3882 17.8494 15.0274 17.672L10.2206 15.3085C10.0815 15.2401 9.9185 15.2401 9.77938 15.3085L4.97258 17.672C4.6118 17.8494 4.19982 17.5501 4.25704 17.1521L5.01951 11.8502C5.04158 11.6968 4.99121 11.5418 4.88316 11.4306L1.14993 7.58942C0.86973 7.30112 1.02709 6.8168 1.42324 6.74826L6.70126 5.83503C6.85403 5.8086 6.98589 5.71279 7.05824 5.57567L9.55778 0.838171Z" fill="#FFCA0E"/>
<path d="M31.5578 0.838171C31.7454 0.482597 32.2546 0.482596 32.4422 0.838169L34.9418 5.57567C35.0141 5.71279 35.146 5.8086 35.2987 5.83503L40.5768 6.74826C40.9729 6.8168 41.1303 7.30112 40.8501 7.58942L37.1168 11.4306C37.0088 11.5418 36.9584 11.6968 36.9805 11.8502L37.743 17.1521C37.8002 17.5501 37.3882 17.8494 37.0274 17.672L32.2206 15.3085C32.0815 15.2401 31.9185 15.2401 31.7794 15.3085L26.9726 17.672C26.6118 17.8494 26.1998 17.5501 26.257 17.1521L27.0195 11.8502C27.0416 11.6968 26.9912 11.5418 26.8832 11.4306L23.1499 7.58942C22.8697 7.30112 23.0271 6.8168 23.4232 6.74826L28.7013 5.83503C28.854 5.8086 28.9859 5.71279 29.0582 5.57567L31.5578 0.838171Z" fill="#FFCA0E"/>
<path d="M53.5578 0.838171C53.7454 0.482597 54.2546 0.482596 54.4422 0.838169L56.9418 5.57567C57.0141 5.71279 57.146 5.8086 57.2987 5.83503L62.5768 6.74826C62.9729 6.8168 63.1303 7.30112 62.8501 7.58942L59.1168 11.4306C59.0088 11.5418 58.9584 11.6968 58.9805 11.8502L59.743 17.1521C59.8002 17.5501 59.3882 17.8494 59.0274 17.672L54.2206 15.3085C54.0815 15.2401 53.9185 15.2401 53.7794 15.3085L48.9726 17.672C48.6118 17.8494 48.1998 17.5501 48.257 17.1521L49.0195 11.8502C49.0416 11.6968 48.9912 11.5418 48.8832 11.4306L45.1499 7.58942C44.8697 7.30112 45.0271 6.8168 45.4232 6.74826L50.7013 5.83503C50.854 5.8086 50.9859 5.71279 51.0582 5.57567L53.5578 0.838171Z" fill="#FFCA0E"/>
<path d="M75.5578 0.838171C75.7454 0.482597 76.2546 0.482596 76.4422 0.838169L78.9418 5.57567C79.0141 5.71279 79.146 5.8086 79.2987 5.83503L84.5768 6.74826C84.9729 6.8168 85.1303 7.30112 84.8501 7.58942L81.1168 11.4306C81.0088 11.5418 80.9584 11.6968 80.9805 11.8502L81.743 17.1521C81.8002 17.5501 81.3882 17.8494 81.0274 17.672L76.2206 15.3085C76.0815 15.2401 75.9185 15.2401 75.7794 15.3085L70.9726 17.672C70.6118 17.8494 70.1998 17.5501 70.257 17.1521L71.0195 11.8502C71.0416 11.6968 70.9912 11.5418 70.8832 11.4306L67.1499 7.58942C66.8697 7.30112 67.0271 6.8168 67.4232 6.74826L72.7013 5.83503C72.854 5.8086 72.9859 5.71279 73.0582 5.57567L75.5578 0.838171Z" fill="#FFCA0E"/>
<path d="M97.5578 0.838171C97.7454 0.482597 98.2546 0.482596 98.4422 0.838169L100.942 5.57567C101.014 5.71279 101.146 5.8086 101.299 5.83503L106.577 6.74826C106.973 6.8168 107.13 7.30112 106.85 7.58942L103.117 11.4306C103.009 11.5418 102.958 11.6968 102.98 11.8502L103.743 17.1521C103.8 17.5501 103.388 17.8494 103.027 17.672L98.2206 15.3085C98.0815 15.2401 97.9185 15.2401 97.7794 15.3085L92.9726 17.672C92.6118 17.8494 92.1998 17.5501 92.257 17.1521L93.0195 11.8502C93.0416 11.6968 92.9912 11.5418 92.8832 11.4306L89.1499 7.58942C88.8697 7.30112 89.0271 6.8168 89.4232 6.74826L94.7013 5.83503C94.854 5.8086 94.9859 5.71279 95.0582 5.57567L97.5578 0.838171Z" fill="#FFCA0E"/>
</svg>
